<?xml version="1.0" encoding="UTF-8"?>
<!--Generator: Apple Native CoreSVG 175.5-->
<!DOCTYPE svg
PUBLIC "-//W3C//DTD SVG 1.1//EN"
       "http://www.w3.org/Graphics/SVG/1.1/DTD/svg11.dtd">
<svg version="1.1" xmlns="http://www.w3.org/2000/svg" xmlns:xlink="http://www.w3.org/1999/xlink" width="21.5234" height="21.4551">
 <g>
  <rect height="21.4551" opacity="0" width="21.5234" x="0" y="0"/>
  <path d="M6.00586 21.4551C6.48438 21.4551 6.81641 21.2012 7.41211 20.6738L10.7812 17.6758L17.0508 17.6758C19.9609 17.6758 21.5234 16.0645 21.5234 13.2031L21.5234 5.72266C21.5234 2.86133 19.9609 1.25 17.0508 1.25L4.47266 1.25C1.5625 1.25 0 2.85156 0 5.72266L0 13.2031C0 16.0742 1.5625 17.6758 4.47266 17.6758L4.94141 17.6758L4.94141 20.2148C4.94141 20.9668 5.32227 21.4551 6.00586 21.4551ZM6.40625 19.668L6.40625 16.8359C6.40625 16.3086 6.20117 16.1035 5.67383 16.1035L4.47266 16.1035C2.5 16.1035 1.57227 15.0977 1.57227 13.1934L1.57227 5.72266C1.57227 3.81836 2.5 2.82227 4.47266 2.82227L17.0508 2.82227C19.0137 2.82227 19.9512 3.81836 19.9512 5.72266L19.9512 13.1934C19.9512 15.0977 19.0137 16.1035 17.0508 16.1035L10.7227 16.1035C10.1758 16.1035 9.90234 16.1816 9.53125 16.5625ZM10.459 13.8672C10.7715 13.8672 11.0156 13.623 11.0156 13.3008L11.0156 5.64453C11.0156 5.32227 10.7715 5.05859 10.4492 5.05859C10.2051 5.05859 10.0586 5.16602 9.80469 5.40039L7.67578 7.41211C7.63672 7.44141 7.59766 7.45117 7.54883 7.45117L6.11328 7.45117C5.43945 7.45117 5.06836 7.82227 5.06836 8.53516L5.06836 10.4004C5.06836 11.1133 5.43945 11.4844 6.11328 11.4844L7.54883 11.4844C7.59766 11.4844 7.63672 11.4941 7.67578 11.5234L9.80469 13.5547C10.0293 13.7695 10.2148 13.8672 10.459 13.8672ZM12.666 11.6602C12.8906 11.8262 13.1934 11.7578 13.3691 11.5332C13.7695 11.0156 13.9941 10.2539 13.9941 9.45312C13.9941 8.68164 13.7598 7.91992 13.3691 7.38281C13.2031 7.14844 12.8906 7.08984 12.666 7.25586C12.4219 7.44141 12.3828 7.74414 12.5586 7.99805C12.8223 8.33984 12.9785 8.88672 12.9785 9.45312C12.9785 10 12.8125 10.5469 12.5586 10.918C12.3828 11.1816 12.4219 11.4746 12.666 11.6602ZM14.4043 12.9492C14.6484 13.1055 14.9414 13.0566 15.0977 12.8223C15.7617 11.8945 16.1328 10.7031 16.1328 9.45312C16.1328 8.23242 15.7715 7.04102 15.1074 6.09375C14.9316 5.84961 14.6289 5.79102 14.4043 5.94727C14.1699 6.13281 14.1211 6.42578 14.3066 6.67969C14.834 7.42188 15.127 8.4082 15.127 9.45312C15.127 10.4883 14.834 11.5137 14.2969 12.2266C14.1113 12.4805 14.1504 12.793 14.4043 12.9492Z" fill="#ffd60a"/>
 </g>
</svg>
