<?xml version="1.0" encoding="UTF-8"?>
<!--Generator: Apple Native CoreSVG 175.5-->
<!DOCTYPE svg
PUBLIC "-//W3C//DTD SVG 1.1//EN"
       "http://www.w3.org/Graphics/SVG/1.1/DTD/svg11.dtd">
<svg version="1.1" xmlns="http://www.w3.org/2000/svg" xmlns:xlink="http://www.w3.org/1999/xlink" width="21.5234" height="21.5723">
 <g>
  <rect height="21.5723" opacity="0" width="21.5234" x="0" y="0"/>
  <path d="M5.80078 21.5723C6.18164 21.5723 6.46484 21.377 6.92383 20.9473L10.4492 17.7246L17.0508 17.7246C19.9609 17.7246 21.5234 16.123 21.5234 13.2617L21.5234 5.78125C21.5234 2.91992 19.9609 1.30859 17.0508 1.30859L4.47266 1.30859C1.5625 1.30859 0 2.91016 0 5.78125L0 13.2617C0 16.1328 1.5625 17.7246 4.47266 17.7246L4.93164 17.7246L4.93164 20.5664C4.93164 21.1719 5.24414 21.5723 5.80078 21.5723ZM10.4492 14.043C10.1953 14.043 10 13.9551 9.76562 13.7305L7.57812 11.6406C7.53906 11.6113 7.49023 11.6016 7.44141 11.6016L5.9668 11.6016C5.27344 11.6016 4.88281 11.2109 4.88281 10.4785L4.88281 8.55469C4.88281 7.82227 5.27344 7.43164 5.9668 7.43164L7.44141 7.43164C7.49023 7.43164 7.53906 7.42188 7.57812 7.39258L9.76562 5.32227C10.0293 5.07812 10.1855 4.9707 10.4297 4.9707C10.7715 4.9707 11.0254 5.24414 11.0254 5.57617L11.0254 13.4668C11.0254 13.7988 10.7715 14.043 10.4492 14.043ZM12.7246 11.7773C12.4707 11.582 12.4219 11.2793 12.6074 11.0059C12.8711 10.625 13.0371 10.0684 13.0371 9.50195C13.0371 8.91602 12.8809 8.35938 12.6074 8.00781C12.4219 7.74414 12.4707 7.43164 12.7246 7.23633C12.9492 7.06055 13.2715 7.12891 13.4473 7.36328C13.8477 7.91992 14.0918 8.71094 14.0918 9.50195C14.0918 10.332 13.8574 11.1133 13.4473 11.6504C13.2617 11.875 12.9492 11.9531 12.7246 11.7773ZM14.5117 13.1055C14.248 12.9492 14.209 12.6172 14.3945 12.3535C14.9512 11.6211 15.2539 10.5664 15.2539 9.50195C15.2539 8.42773 14.9512 7.41211 14.4043 6.64062C14.2188 6.38672 14.2676 6.07422 14.5117 5.88867C14.7461 5.72266 15.0586 5.78125 15.2344 6.03516C15.9277 7.01172 16.2988 8.24219 16.2988 9.50195C16.2988 10.791 15.9082 12.0215 15.2246 12.9785C15.0684 13.2129 14.7656 13.2715 14.5117 13.1055Z" fill="#ffd60a"/>
 </g>
</svg>
